{"title":"Mary Shelleys Frankenhole S01E01-E05 (PSP, iPod, Zune)","uid":5751240,"size":287646823,"categoryP":"video","categoryS":"handheld","magnet":"?xt=urn:btih:6f9b4357cbb975ed4d827eb8bfc410d350f60b87&amp;dn=Mary+Shelleys+Frankenhole+S01E01-E05+%28PSP%2C+iPod%2C+Zune%29&amp;tr=udp%3A%2F%2Ftracker.openbittorrent.com%3A80&amp;tr=udp%3A%2F%2Fopen.demonii.com%3A1337&amp;tr=udp%3A%2F%2Ftracker.coppersurfer.tk%3A6969&amp;tr=udp%3A%2F%2Fexodus.desync.com%3A6969","seeders":0,"leechers":0,"uploader":"The_Day_Walker","files":-1,"time":1281403747,"description":"Mary Shelleys Frankenhole S01 E01-05 \n\nEncoded for PSP, iPod, and Zune. \n\nEnjoy and please help me seed, so I can release more stuff faster! (^_^)\n\nEveryone should try this show, at least that\\'s what I think. In the first episode they make fun of Micheal Jackson and how weird he was and in the fourth episode, Adolf Hitler travels back in time o Mary Shelly came make it so he can tolerate the Jews, but instead he ends up love the Jewish leg of Frankenstien and all goes wrong.\n\nThis show comes on AdultSwim, I think that it\\'s kinda funny, I like to watch it late at night when nothing good is on.\n\nShow Nfo - In this stop-motion series, we follow Victor Frankenstein, the mad genius who mastered immortality and now has also created an infinite number of portals (or Frankenholes) connecting his small, Eastern European village (that is teaming with monsters and supernatural forces) to every time period from the past and the future. \n\nVideo Specs: \nFormat                           : MPEG-4\nCodec ID                         : M4V \nFile size                        : 56.8 MiB\nDuration                         : 12mn 33s\nOverall bit rate                 : 633 Kbps\nMovie name                       : E01\nEncoded date                     : 2010\nWriting application              : Lavf52.33.0\n\nVideo\nID                               : 1\nFormat                           : AVC\nFormat/Info                      : Advanced Video Codec\nFormat profile                   : &lt;a class=&quot;__cf_email__&quot; href=&quot;/cdn-cgi/l/email-protection&quot; data-cfemail=&quot;76341705131a1f1813363a475845&quot;&gt;[email&amp;#160;protected]&lt;/a&gt;&lt;script data-cfhash='f9e31' type=&quot;text/javascript&quot;&gt;\n/* &lt;![CDATA[ */!function(){try{var t=&quot;currentScript&quot;in document?document.currentScript:function(){for(var t=document.getElementsByTagName(&quot;script&quot;),e=t.length;e--;)if(t[e].getAttribute(&quot;data-cfhash&quot;))return t[e]}();if(t&amp;&amp;t.previousSibling){var e,r,n,i,c=t.previousSibling,a=c.getAttribute(&quot;data-cfemail&quot;);if(a){for(e=&quot;&quot;,r=parseInt(a.substr(0,2),16),n=2;a.length-n;n+=2)i=parseInt(a.substr(n,2),16)^r,e+=String.fromCharCode(i);e=document.createTextNode(e),c.parentNode.replaceChild(e,c)}t.parentNode.removeChild(t);}}catch(u){}}()/* ]]&gt; */&lt;/script&gt;\nFormat settings, CABAC           : No\nFormat settings, ReFrames        : 1 frame\nCodec ID                         : avc1\nCodec ID/Info                    : Advanced Video Coding\nDuration                         : 12mn 33s\nBit rate mode                    : Variable\nBit rate                         : 500 Kbps\nWidth                            : 320 pixels\nHeight                           : 240 pixels\nDisplay aspect ratio             : 4:3\nFrame rate mode                  : Constant\nFrame rate                       : 29.970 fps\nColor space                      : YUV\nChroma subsampling               : 4:2:0\nBit depth                        : 8 bits\nScan type                        : Progressive\nBits/(Pixel*Frame)               : 0.217\nStream size                      : 44.9 MiB (79%)\n\nAudio\nID                               : 2\nFormat                           : AAC\nFormat/Info                      : Advanced Audio Codec\nFormat version                   : Version 4\nFormat profile                   : LC\nFormat settings, SBR             : No\nCodec ID                         : 40\nDuration                         : 12mn 33s\nBit rate mode                    : Variable\nBit rate                         : 128 Kbps\nChannel(s)                       : 2 channels\nChannel positions                : Front: L R\nSampling rate                    : 48.0 KHz\nStream size                      : 11.5 MiB (20%)\n\n","torrent":{"xt":"urn:btih:6f9b4357cbb975ed4d827eb8bfc410d350f60b87","amp;dn":"Mary+Shelleys+Frankenhole+S01E01-E05+%28PSP%2C+iPod%2C+Zune%29","amp;tr":["udp%3A%2F%2Ftracker.openbittorrent.com%3A80","udp%3A%2F%2Fopen.demonii.com%3A1337","udp%3A%2F%2Ftracker.coppersurfer.tk%3A6969","udp%3A%2F%2Fexodus.desync.com%3A6969"],"infoHash":"6f9b4357cbb975ed4d827eb8bfc410d350f60b87","infoHashBuffer":{"type":"Buffer","data":[111,155,67,87,203,185,117,237,77,130,126,184,191,196,16,211,80,246,11,135]},"announce":[],"urlList":[]}}